Coordinates
version=1
nRows=13
nColumns=34
inDegrees=yes

Units are S.I. units (second, meters, Newtons, ...)
If the header above contains a line with 'inDegrees', this indicates whether rotational values are in degrees (yes) or radians (no).

endheader
time	pelvis_tilt	pelvis_list	pelvis_rotation	pelvis_tx	pelvis_ty	pelvis_tz	hip_flexion_r	hip_adduction_r	hip_rotation_r	knee_angle_r	ankle_angle_r	subtalar_angle_r	mtp_angle_r	hip_flexion_l	hip_adduction_l	hip_rotation_l	knee_angle_l	ankle_angle_l	subtalar_angle_l	mtp_angle_l	lumbar_extension	lumbar_bending	lumbar_rotation	arm_flex_r	arm_add_r	arm_rot_r	elbow_flex_r	pro_sup_r	arm_flex_l	arm_add_l	arm_rot_l	elbow_flex_l	pro_sup_l
     10.51666670	      4.65472812	      5.06932959	      4.14117177	      0.38094463	      1.00159035	     -0.30388869	     -9.93501967	    -12.09616562	    -20.06396830	      0.55270177	      5.12136731	     -2.21903299	      0.00000000	      7.34120004	      6.65065251	     -0.11916120	     10.18910419	     12.80913278	     -0.63266821	      0.00000000	    -12.14505707	     -8.63981063	     14.63643746	     17.64875946	    -27.31749857	    -26.57694105	     29.43624415	    117.37243186	     22.03170619	    -18.83588565	     34.72080635	    126.64009865	    119.40399795
     10.53333330	      4.60992559	      5.13331841	      4.41568637	      0.38171925	      1.00170983	     -0.30273827	     -9.98160547	    -12.03219933	    -20.21402288	      0.68323412	      5.30836149	     -2.34674708	      0.00000000	      7.33775203	      6.60261359	     -0.17438690	     10.18555535	     12.65359649	     -0.41692277	      0.00000000	    -12.36557061	     -8.47631871	     14.90283673	     15.06338983	    -26.63453970	    -26.91986005	     28.38155350	    117.33886485	     21.56546328	    -18.90686276	     34.21574887	    127.45296596	    119.34299129
     10.55000000	      4.13524618	      5.44568513	      5.12496880	      0.38329883	      1.00125575	     -0.30207763	     -9.84148604	    -12.22737651	    -21.00757984	      0.69931676	      5.60794407	     -1.97532381	      0.00000000	      7.66761336	      6.84604143	     -0.64160592	     10.05427963	     12.89810710	      1.16515088	      0.00000000	    -12.02688337	     -8.59307138	     15.16714853	     11.42039539	    -24.99270374	    -29.83558347	     29.27834388	    117.18967101	     21.19206376	    -18.82458674	     33.86505448	    127.87890834	    118.83835409
     10.56666670	      3.97255547	      5.56854644	      5.46791928	      0.38456350	      1.00122346	     -0.30073450	     -9.87059569	    -12.19059943	    -21.19177118	      0.69328626	      5.78133008	     -2.07361248	      0.00000000	      7.62173048	      6.89090351	     -0.46806799	      9.81403383	     13.01196008	      1.54788017	      0.00000000	    -12.00181768	     -8.44908162	     15.59925849	      9.12630024	    -23.90919469	    -30.06866348	     27.93155667	    117.25172888	     20.58325636	    -18.66304324	     33.15308231	    128.21335936	    118.71677230
     10.58333330	      3.71293954	      5.75787912	      6.04862812	      0.38580747	      1.00105158	     -0.29968309	     -9.83208062	    -12.23279501	    -21.51529402	      0.81783462	      5.90570682	     -2.17385563	      0.00000000	      7.64960374	      7.05032374	     -0.24874116	      9.52422761	     13.00853432	      2.18042450	      0.00000000	    -11.90632296	     -8.31399473	     15.84115522	      6.93303414	    -22.67649165	    -30.39342116	     26.97209974	    117.38945319	     19.91243233	    -18.60267023	     32.29206584	    128.43321407	    118.54190148
     10.60000000	      3.50779534	      5.88272377	      6.72041041	      0.38682662	      1.00089488	     -0.29819368	     -9.81882038	    -12.15577520	    -21.99035593	      1.01134268	      6.15608623	     -2.37970932	      0.00000000	      7.69533185	      7.09851052	     -0.00656839	      9.33051348	     13.01313960	      2.77413712	      0.00000000	    -11.91303595	     -8.15803993	     16.07471409	      5.04790243	    -21.34500558	    -30.65912215	     26.14566824	    117.61050652	     19.33035199	    -18.46505682	     31.42722508	    128.66033699	    118.36428487
     10.61666670	      3.47107755	      5.91470641	      7.23947382	      0.38761495	      1.00094645	     -0.29553906	     -9.88564730	    -11.94200564	    -22.28605934	      1.23061932	      6.43601384	     -2.65140587	      0.00000000	      7.66986093	      6.96519338	      0.12689552	      9.28018026	     12.88450902	      3.01145254	      0.00000000	    -12.11599828	     -7.99389628	     16.53742140	      3.51208938	    -20.09910047	    -30.65061549	     25.29277103	    117.71118441	     18.96993036	    -18.40307459	     30.75015401	    128.93347546	    118.29062476
     10.63333330	      3.30609954	      6.00801817	      7.99841004	      0.38837792	      1.00077152	     -0.29305842	     -9.90189103	    -11.75868827	    -22.81452323	      1.44720162	      6.75228078	     -2.99866713	      0.00000000	      7.60597944	      6.92734893	      0.60940224	      8.92116710	     12.96092093	      3.58088437	      0.00000000	    -12.05917752	     -7.89268544	     16.77906847	      2.19555543	    -18.80003548	    -30.67867300	     24.59957837	    117.93267396	     18.40930641	    -18.02036627	     29.71271097	    128.85328222	    118.17884572
     10.65000000	      3.31609771	      6.04289908	      8.60578260	      0.38924092	      1.00084390	     -0.28976046	    -10.00063091	    -11.49186412	    -23.18079955	      1.73455045	      7.00048181	     -3.28091555	      0.00000000	      7.53563542	      6.73409994	      0.89903888	      8.85747234	     12.83314205	      3.88551293	      0.00000000	    -12.15975252	     -7.75970469	     17.18191897	      1.04823310	    -17.69792966	    -30.67342392	     23.91231811	    118.06314896	     17.99412817	    -17.98766372	     28.89135431	    128.98450264	    118.12321562
     10.66666670	      3.18850289	      6.00845955	      9.87766903	      0.38969958	      1.00081099	     -0.28718282	    -10.14873025	    -11.04011280	    -24.48834344	      1.95535317	      7.20680431	     -3.34616424	      0.00000000	      7.61464899	      6.56242998	      1.87884019	      8.75950076	     12.89046950	      4.56564870	      0.00000000	    -12.13462809	     -7.50953854	     16.49660320	      0.52620791	    -16.43362137	    -31.00567845	     23.30566635	    118.88749014	     16.91715671	    -17.74466185	     27.19408345	    129.32433713	    118.09998855
     10.68333330	      3.20990732	      6.00045211	     10.50369565	      0.39040766	      1.00094137	     -0.28346761	    -10.25782721	    -10.67098879	    -24.86676404	      2.17860568	      7.60882833	     -3.54388404	      0.00000000	      7.45409023	      6.29623977	      2.26193514	      8.48233665	     12.82572728	      4.84024270	      0.00000000	    -12.09188306	     -7.43080968	     16.99244767	     -0.34131866	    -15.46336858	    -30.99196635	     22.67776977	    119.14096513	     16.55498652	    -17.34346415	     26.26759065	    129.10054390	    118.07717847
     10.70000000	      3.26813035	      6.00381335	     11.09616767	      0.39101404	      1.00116685	     -0.27928120	    -10.37204415	    -10.26007098	    -25.23650967	      2.40988334	      7.93381098	     -3.80665568	      0.00000000	      7.32858271	      6.00148332	      2.59197153	      8.34220240	     12.61966400	      5.09411122	      0.00000000	    -12.09344503	     -7.41400988	     17.55382187	     -1.10875102	    -14.62836380	    -30.95499943	     22.16016287	    119.28315370	     16.18315495	    -17.15660176	     25.37690606	    129.12024003	    118.04559864
     10.71666670	      3.28485399	      5.94407208	     11.88691833	      0.39132163	      1.00142814	     -0.27534193	    -10.41844287	     -9.78661080	    -25.83708926	      2.70561925	      8.23246489	     -4.00887774	      0.00000000	      7.11070193	      5.70589091	      3.30115199	      7.86742168	     12.49356796	      5.52291069	      0.00000000	    -12.01118352	     -7.27768004	     17.64824104	     -1.51832263	    -13.85987299	    -30.91216890	     21.75946883	    119.58185359	     15.47081000	    -16.54276403	     23.89997516	    128.86938150	    118.00101681
